<?xml version="1.0" encoding="utf-8"?>
<!-- Generator: Adobe Illustrator 23.0.4, SVG Export Plug-In . SVG Version: 6.00 Build 0)  -->
<svg version="1.1" id="Capa_1" xmlns="http://www.w3.org/2000/svg" xmlns:xlink="http://www.w3.org/1999/xlink" x="0px" y="0px"
	 viewBox="0 0 58 58" style="enable-background:new 0 0 58 58;" xml:space="preserve">
<style type="text/css">
	.st0{fill:#939393;}
</style>
<path class="st0" d="M57,6H1C0.4,6,0,6.4,0,7v44c0,0.6,0.4,1,1,1h56c0.6,0,1-0.4,1-1V7C58,6.4,57.6,6,57,6z M16,17
	c3.1,0,5.6,2.5,5.6,5.6c0,3.1-2.5,5.6-5.6,5.6s-5.6-2.5-5.6-5.6C10.4,19.5,12.9,17,16,17z M52.7,35.7c-0.4,0.4-1,0.4-1.4,0.1
	L40.1,25.4l-9.2,10.1l4.8,4.8c0.4,0.4,0.4,1,0,1.4s-1,0.4-1.4,0L24,31.4L7.7,45.8C7.5,45.9,7.2,46,7,46c-0.3,0-0.6-0.1-0.8-0.3
	c-0.4-0.4-0.3-1,0.1-1.4l17-15c0.4-0.3,1-0.3,1.4,0l4.7,4.7l9.8-10.7c0.2-0.2,0.4-0.3,0.7-0.3c0.3,0,0.5,0.1,0.7,0.3l12,11
	C53.1,34.6,53.1,35.3,52.7,35.7z"/>
</svg>
